<?xml version="1.0" encoding="UTF-8"?><svg width="454.92" height="51.15" data-name="Layer 1" version="1.1" viewBox="0 0 454.92 51.15" xmlns="http://www.w3.org/2000/svg"><g fill="currentColor"><path d="m0 1.4503h5.15l9.69 29 10.32-29h5.13l-12.74 34.26h-5.9z"/><path d="m39.87 19.77c0.43 6.6 4.78 12.71 12.22 12.71 4.56 0 8.42-1.27 10.88-5.9l3.37 2.18c-2.74 5.12-8.7 7.79-13.9 7.79-11.23 0-17.34-8.14-17.34-18.18 0-10.04 7.44-17.77 16.78-17.77 8.85 0 15.23 7.52 15.23 16 0 1.12-0.14 2.53-0.21 3.16zm12-15.09c-6.6 0-10.88 4.63-11.87 11h22.4c-0.25-5.74-4.69-11-10.52-11z"/><path d="m107.62 33.74c0 12.08-8.14 17.41-17.27 17.41a27.86 27.86 0 0 1-15-4.84l2-4a22.44 22.44 0 0 0 13 4.49c6.46 0 12.57-3.16 12.57-11.58v-4.78a13.81 13.81 0 0 1-11 5.27 17.44 17.44 0 0 1-17.64-17.42 17.74 17.74 0 0 1 17.62-17.7 16.46 16.46 0 0 1 11 4.22v-3.37h4.77zm-4.77-23.38a14.41 14.41 0 0 0-10.88-5.4 12.89 12.89 0 0 0-12.82 13.06c0 7 5.27 13.33 12.78 13.33 4.21 0 8.91-2.45 10.88-6.45z"/><path d="m141.15 31.71a14.72 14.72 0 0 1-11.23 4.84c-6.32 0-11.86-3.72-11.86-10.18 0-8.42 7.86-11.72 15.16-11.72a31.11 31.11 0 0 1 7.79 1v-1.9c0-5.68-2.8-8.84-8.77-8.84a25.29 25.29 0 0 0-11.16 3l-1.62-4.29a34.44 34.44 0 0 1 13-3c10.18 0 13.34 5.34 13.34 14.19v20.92h-4.28zm-8.14-13.13c-4.7 0-10.18 1.89-10.18 7.23 0 4.14 3.23 6.81 7.23 6.81s7.72-2 10.95-5.13v-7.93a34 34 0 0 0-7.97-0.98z"/><path d="m163.58 1.4503v6a13.55 13.55 0 0 1 12.22-6.88c9.76 0 12.92 6.25 12.92 16.57v18.54h-4.78v-17.73c0-6.46-1.19-13-8.84-13-5.13 0-9.27 3.65-11.52 8v22.75h-4.77v-34.25z"/><path d="m203.02 35.84v-35.24h6.24v29.9h14.8v5.34z"/><path d="m229.04 35.84v-35.24h6.24v35.24z"/><path d="m268 35.84-17.42-23.81v23.81h-6.24v-35.24h5.49l17.51 23.86v-23.86h6.24v35.24z"/><path d="m299.96 21.29v-5.33h14.95v13.54a18.39 18.39 0 0 1-15 7c-10.72 0-18.82-7.35-18.82-18.22 0-10.37 8.4-18.22 18.82-18.22a18.59 18.59 0 0 1 14.34 6.64l-4.37 3.73a13.36 13.36 0 0 0-10-4.88c-7.05 0-12.23 5.48-12.23 12.73 0 7.7 5 12.74 12.23 12.74a12.86 12.86 0 0 0 8.76-3.43v-6.3z"/><path d="m351.05 19.29c0 11.07-4.18 17.16-14.09 17.16-9.67 0-13.85-6.09-13.85-17.16v-18.69h6.25v19.69c0 7.15 3 10.63 7.7 10.63s7.75-3.48 7.75-10.63v-19.69h6.24z"/><path d="m359.96 35.84v-35.24h6.24v35.24z"/><path d="m386.99 5.3903c-2.92 0-5.24 1.46-5.24 4.12 0 2.66 3.48 3.88 6.29 4.84 5.19 1.76 11 4.07 11 11.17 0 7.75-7.05 10.92-12.89 10.92-5.33 0-9.36-1.86-13.19-5.64l4.23-4.07c3.07 3 5.39 4.33 9 4.33 3.12 0 6.24-1.51 6.24-5.19 0-3.37-3.57-4.63-7.24-5.94-4.74-1.71-9.72-4-9.72-10.11 0-6.7 5.34-9.82 11.12-9.82a18.13 18.13 0 0 1 11.38 3.93l-3.67 4.48a11.86 11.86 0 0 0-7.31-3.02z"/><path d="m417.59 5.9403v29.9h-6.24v-29.9h-8.56v-5.34h23.36v5.34z"/><path d="m442.86 5.3903c-2.92 0-5.24 1.46-5.24 4.12 0 2.66 3.48 3.88 6.3 4.84 5.18 1.76 11 4.07 11 11.17 0 7.75-7.05 10.92-12.89 10.92-5.33 0-9.36-1.86-13.18-5.64l4.22-4.07c3.07 3 5.39 4.33 9 4.33 3.12 0 6.24-1.51 6.24-5.19 0-3.37-3.57-4.63-7.24-5.94-4.73-1.71-9.72-4-9.72-10.11 0-6.7 5.34-9.82 11.13-9.82a18.1 18.1 0 0 1 11.37 3.93l-3.67 4.48a11.83 11.83 0 0 0-7.32-3.02z"/></g></svg>
