<?xml version="1.0" encoding="UTF-8" standalone="no"?>
<svg
   id="Layer_1"
   data-name="Layer 1"
   viewBox="0 0 187.02 103.93488"
   version="1.1"
   width="187.02"
   height="103.93488"
   xmlns="http://www.w3.org/2000/svg"
   xmlns:svg="http://www.w3.org/2000/svg">
  <defs
     id="defs823">
    <style
       id="style821">.cls-1{fill:#b6674b;}.cls-2{fill:#a1c64f;}.cls-3{fill:#292222;}.cls-4{fill:#fff;}</style>
  </defs>
  <path
     class="cls-1"
     d="m 187.02,102.46486 -20.11,-8.08 a 44.36,44.36 0 0 1 -58.53,-6.61 c 0.54,-1.17 1.12,-2.46 1.72,-3.84 10.19,-21.79 14.16,-39.57 9.48,-57 a 21.17,21.17 0 0 0 -2.88,-5.64 44.34,44.34 0 0 1 62.08,60.67 z"
     id="path825" />
  <path
     class="cls-2"
     d="m 78.57,87.77486 a 44.35,44.35 0 0 1 -58.48,6.62 l -20.09,8.07 8.23,-20.48 a 44.33,44.33 0 0 1 62,-60.7 21.17,21.17 0 0 0 -2.85,5.64 c -4.68,17.44 -0.71,35.22 9.48,57 0.59,1.39 1.17,2.68 1.71,3.85 z"
     id="path827" />
  <path
     class="cls-3"
     d="m 114.93,19.18486 a 20.59,20.59 0 0 0 -11,-5.32 37.39,37.39 0 0 0 10.68,-13.00000042 1.56,1.56 0 0 1 2.91,0.38000002 25.74,25.74 0 0 1 -2.59,17.9400004 z"
     id="path829" />
  <path
     class="cls-3"
     d="m 83.31,13.82486 a 20.94,20.94 0 0 0 -11.09,5.19 A 25.69,25.69 0 0 1 69.78,1.2248596 1.56,1.56 0 0 1 72.69,0.84485958 37.2,37.2 0 0 0 83.31,13.82486 Z"
     id="path831" />
  <path
     class="cls-3"
     d="m 151.23,29.51486 -9.67,-2.84 a 13.08,13.08 0 0 0 -10,1 l -1.33,0.72 a 13.06,13.06 0 0 1 -10,1 v 0 h -0.05 c -0.19,-0.85 -0.39,-1.7 -0.62,-2.55 a 21.17,21.17 0 0 0 -2.88,-5.64 44.34,44.34 0 0 0 -8.3,66.57 c 0.54,-1.17 1.12,-2.46 1.72,-3.84 7.12,-15.22 11.2,-28.48 11.41,-41 a 51.37,51.37 0 0 1 4.95,2.74 10.31,10.31 0 0 0 3.47,1.8 19.3,19.3 0 0 0 24,-13 4,4 0 0 0 -2.69,-4.94 z m -33.49,15.79 -3.86,0.73 a 9,9 0 0 1 1.12,3 c 0,0.14 0,0.27 0,0.41 a 4.06,4.06 0 0 1 -0.3,1.15 4.63,4.63 0 0 1 -0.31,0.58 0.31,0.31 0 0 0 -0.08,0.13 3.37,3.37 0 0 1 -0.46,0.54 3.14,3.14 0 0 1 -0.59,0.49 5.7,5.7 0 0 1 -0.69,0.37 2.76,2.76 0 0 1 -0.77,0.23 3.5,3.5 0 0 1 -0.8,0.08 h -3 a 0.42,0.42 0 0 1 -0.39,-0.54 37.41,37.41 0 0 1 3,-6.44 2,2 0 0 1 1.78,-1 h 5.28 a 0.15,0.15 0 0 1 0.07,0.27 z"
     id="path833" />
  <path
     class="cls-3"
     d="m 70.25,21.28486 a 21.17,21.17 0 0 0 -2.87,5.64 c -0.23,0.85 -0.43,1.7 -0.62,2.55 h -0.05 v 0 a 13,13 0 0 1 -9.94,-1 l -1.39,-0.8 a 13.07,13.07 0 0 0 -10,-1 l -9.67,2.88 a 4,4 0 0 0 -2.69,4.94 19.3,19.3 0 0 0 24,13 10.12,10.12 0 0 0 3.5,-1.82 50.11,50.11 0 0 1 4.92,-2.77 c 0.22,12.56 4.29,25.82 11.41,41 0.6,1.38 1.18,2.67 1.72,3.84 a 44.34,44.34 0 0 0 -8.32,-66.49 z m 9,31.7 h -3 a 3.68,3.68 0 0 1 -0.82,-0.08 2.9,2.9 0 0 1 -0.76,-0.23 6.56,6.56 0 0 1 -0.69,-0.37 2.79,2.79 0 0 1 -0.58,-0.49 2.59,2.59 0 0 1 -0.46,-0.54 0.91,0.91 0 0 0 -0.08,-0.13 4.71,4.71 0 0 1 -0.32,-0.58 4.43,4.43 0 0 1 -0.3,-1.15 c 0,-0.14 0,-0.27 0,-0.41 a 9,9 0 0 1 1.11,-3 l -3.85,-0.73 a 0.15,0.15 0 0 1 0.06,-0.29 h 5.29 a 2,2 0 0 1 1.78,1 36,36 0 0 1 3,6.44 0.41,0.41 0 0 1 -0.41,0.56 z"
     id="path835" />
  <path
     class="cls-4"
     d="m 65.61,37.40486 v -0.22 z"
     id="path837" />
  <path
     class="cls-3"
     d="m 107.27,95.14486 -1.71,-5 a 7.32,7.32 0 0 0 -6.93,-5 H 88.31 a 7.31,7.31 0 0 0 -6.92,5 l -1.71,5 a 6.64,6.64 0 0 0 6.29,8.79 h 15 a 6.64,6.64 0 0 0 6.3,-8.79 z m -19,4.18 a 1.15,1.15 0 0 1 -1.22,-0.15 l -3.38,-2.76 a 3.09,3.09 0 0 1 -0.75,-3.89 l 0.46,-0.85 a 1.32,1.32 0 0 1 2.32,0 l 3.13,6 a 1.13,1.13 0 0 1 0.13,0.54 1.15,1.15 0 0 1 -0.66,1.11 z m 14.82,-2.91 -3.39,2.76 a 1.15,1.15 0 0 1 -1.22,0.15 1.17,1.17 0 0 1 -0.69,-1.06 1.13,1.13 0 0 1 0.13,-0.54 l 3.15,-6 a 1.3,1.3 0 0 1 2.3,0 l 0.46,0.82 a 3.1,3.1 0 0 1 -0.71,3.87 z"
     id="path839" />
  <path
     class="cls-4"
     d="m 121.38,37.40486 a 1.18,1.18 0 0 0 0,-0.22 z"
     id="path841" />
  <polygon
     class="cls-2"
     points="46.17,98.1 9.62,112.79 23.83,77.25 "
     id="polygon843"
     transform="translate(-9.62,-10.32514)" />
</svg>
