<?xml version="1.0" encoding="UTF-8" standalone="no"?>
<svg
   id="Layer_1"
   data-name="Layer 1"
   viewBox="0 0 187.02 103.93486"
   version="1.1"
   width="187.02"
   height="103.93486"
   xmlns="http://www.w3.org/2000/svg"
   xmlns:svg="http://www.w3.org/2000/svg">
  <defs
     id="defs987">
    <style
       id="style985">.cls-1{fill:#292222;}.cls-2{fill:#f2efed;}.cls-3{fill:#b6674b;}.cls-4{fill:#a1c64f;}.cls-5{fill:#fff;}</style>
  </defs>
  <path
     class="cls-3"
     d="m 187.02,102.47486 -20.11,-8.09 a 44.31,44.31 0 0 1 -58.49,-6.61 c 0.54,-1.17 1.11,-2.45 1.72,-3.84 10.18,-21.79 14.15,-39.57 9.48,-57 a 21.48,21.48 0 0 0 -2.89,-5.64 44.35,44.35 0 0 1 62.05,60.71 z"
     id="path1067" />
  <path
     class="cls-4"
     d="m 78.57,87.77486 a 44.3,44.3 0 0 1 -58.47,6.62 l -20.1,8.08 8.21,-20.47 a 44.34,44.34 0 0 1 62,-60.71 21.48,21.48 0 0 0 -2.89,5.64 c -4.67,17.44 -0.7,35.22 9.49,57 q 0.95,2.07 1.76,3.84 z"
     id="path1069" />
  <path
     class="cls-2"
     d="m 116.92,14.50486 a 24.38,24.38 0 0 0 -8.71,-4.5 37.94,37.94 0 0 0 6.37,-9.13000042 1.56,1.56 0 0 1 2.91,0.38000002 25.86,25.86 0 0 1 -0.57,13.2500004 z"
     id="path1071" />
  <path
     class="cls-2"
     d="M 79,9.9148596 A 24.38,24.38 0 0 0 70.28,14.32486 25.85,25.85 0 0 1 69.78,1.2248596 1.56,1.56 0 0 1 72.69,0.84485958 38.32,38.32 0 0 0 79,9.9148596 Z"
     id="path1073" />
  <path
     class="cls-1"
     d="m 89.94,58.13486 a 44.15,44.15 0 0 1 -11.37,29.64 q -0.81,-1.76 -1.71,-3.84 c -7.12,-15.21 -11.2,-28.47 -11.42,-41 a 53.23,53.23 0 0 0 -4.92,2.76 10.06,10.06 0 0 1 -3.46,1.8 19.3,19.3 0 0 1 -24,-13 4.09,4.09 0 0 1 -0.17,-1.14 4,4 0 0 1 2.85,-3.81 l 9.67,-2.87 a 13,13 0 0 1 9.95,1 l 1.34,0.72 a 13,13 0 0 0 9.95,1 h 0.05 v 0 c 0.19,-0.85 0.4,-1.7 0.62,-2.55 a 21.48,21.48 0 0 1 2.89,-5.64 44.29,44.29 0 0 1 19.73,36.93 z"
     id="path1075" />
  <path
     class="cls-5"
     d="m 65.62,37.40486 c 0,-0.14 0,-0.22 0,-0.22 z"
     id="path1077" />
  <path
     class="cls-2"
     d="m 97.05,58.13486 a 44.2,44.2 0 0 0 11.37,29.64 c -0.83,1.78 -1.55,3.29 -2.13,4.48 l 1,2.89 a 6.65,6.65 0 0 1 -6.3,8.79 h -15 a 6.65,6.65 0 0 1 -6.3,-8.79 l 1,-2.93 c -0.58,-1.19 -1.3,-2.68 -2.1,-4.44 a 44.34,44.34 0 0 0 -8.32,-66.49 c 5,-6.93 13.56,-8.2 23.21,-8.21 h 0.06 c 9.64,0 18.16,1.28 23.2,8.21 a 44.28,44.28 0 0 0 -19.69,36.85 z"
     id="path1079" />
  <path
     class="cls-1"
     d="m 154.09,33.32486 a 4.09,4.09 0 0 1 -0.17,1.14 19.29,19.29 0 0 1 -24,13 10.21,10.21 0 0 1 -3.47,-1.8 50.93,50.93 0 0 0 -4.92,-2.76 c -0.22,12.55 -4.3,25.81 -11.41,41 -0.61,1.39 -1.18,2.67 -1.72,3.84 a 44.33,44.33 0 0 1 8.31,-66.49 21.48,21.48 0 0 1 2.89,5.64 c 0.22,0.85 0.43,1.7 0.62,2.55 v 0 h 0.05 a 13,13 0 0 0 9.95,-1 l 1.34,-0.72 a 13,13 0 0 1 9.95,-1 l 9.7,2.79 a 4,4 0 0 1 2.88,3.81 z"
     id="path1081" />
  <path
     class="cls-1"
     d="m 97.96,97.72486 3.14,-6 a 1.32,1.32 0 0 1 2.31,0 l 0.46,0.82 a 3.09,3.09 0 0 1 -0.75,3.89 l -3.38,2.76 a 1.18,1.18 0 0 1 -1.22,0.16 v 0 a 1.17,1.17 0 0 1 -0.56,-1.63 z"
     id="path1083" />
  <path
     class="cls-1"
     d="m 88.87,97.72486 -3.14,-6 a 1.32,1.32 0 0 0 -2.31,0 l -0.46,0.82 a 3.08,3.08 0 0 0 0.75,3.89 l 3.38,2.76 a 1.17,1.17 0 0 0 1.22,0.16 v 0 a 1.18,1.18 0 0 0 0.56,-1.63 z"
     id="path1085" />
  <path
     class="cls-5"
     d="m 121.38,37.40486 v -0.22 z"
     id="path1087" />
  <path
     class="cls-2"
     d="m 117.74,45.30486 -3.85,0.73 a 9,9 0 0 1 1.11,3 c 0,0.14 0,0.27 0,0.41 a 3.61,3.61 0 0 1 -0.61,1.73 0.91,0.91 0 0 0 -0.08,0.13 2.93,2.93 0 0 1 -0.46,0.54 3.42,3.42 0 0 1 -0.58,0.49 7.73,7.73 0 0 1 -0.69,0.37 3.44,3.44 0 0 1 -0.77,0.24 4.28,4.28 0 0 1 -0.81,0.08 h -3 a 0.41,0.41 0 0 1 -0.38,-0.55 37,37 0 0 1 3,-6.44 2,2 0 0 1 1.78,-1 h 5.28 a 0.15,0.15 0 0 1 0.06,0.27 z"
     id="path1089" />
  <path
     class="cls-2"
     d="m 69.52,45.00486 h 5.29 a 2.05,2.05 0 0 1 1.78,1 37.76,37.76 0 0 1 3,6.44 0.42,0.42 0 0 1 -0.38,0.56 h -3 a 4.28,4.28 0 0 1 -0.81,-0.08 3.21,3.21 0 0 1 -0.76,-0.24 5.7,5.7 0 0 1 -0.69,-0.37 3.14,3.14 0 0 1 -0.59,-0.49 3.37,3.37 0 0 1 -0.46,-0.54 0.46,0.46 0 0 0 -0.08,-0.13 3.93,3.93 0 0 1 -0.61,-1.73 c 0,-0.14 0,-0.27 0,-0.41 a 9,9 0 0 1 1.11,-3 l -3.85,-0.73 a 0.15,0.15 0 0 1 0.05,-0.28 z"
     id="path1091" />
</svg>
