<?xml version="1.0" encoding="UTF-8"?><svg width="187.03" height="103.93" data-name="Layer 1" version="1.1" viewBox="0 0 187.03 103.93" xmlns="http://www.w3.org/2000/svg"><defs><style>.logo-abbr-1{fill:#292222;}.logo-abbr-2{fill:#b6674b;}.logo-abbr-3{fill:#a1c64f;}.logo-abbr-4{fill:#f2efed;}.logo-abbr-5{fill:#fff;}</style></defs><path class="logo-abbr-2" d="m187.03 102.47-20.12-8.09a44.31 44.31 0 0 1-58.49-6.61c0.54-1.17 1.12-2.45 1.72-3.84 10.19-21.78 14.16-39.57 9.48-57a21.08 21.08 0 0 0-2.88-5.65 44.35 44.35 0 0 1 62 60.69z"/><path class="logo-abbr-3" d="m78.57 87.768a44.3 44.3 0 0 1-58.47 6.62l-20.1 8.08 8.24-20.48a44.34 44.34 0 0 1 62-60.71 21.08 21.08 0 0 0-2.87 5.65c-4.68 17.43-0.71 35.22 9.48 57 0.61 1.39 1.19 2.72 1.72 3.84z"/><path class="logo-abbr-4" d="m116.92 14.498a24.42 24.42 0 0 0-8.72-4.53 38.34 38.34 0 0 0 6.36-9.12 1.56 1.56 0 0 1 2.91 0.37 25.86 25.86 0 0 1-0.55 13.28z"/><path class="logo-abbr-4" d="m79.01 9.9079a24.36 24.36 0 0 0-8.73 4.42 25.89 25.89 0 0 1-0.5-13.11 1.56 1.56 0 0 1 2.91-0.37 38 38 0 0 0 6.32 9.06z"/><path class="logo-abbr-1" d="m89.94 58.128a44.13 44.13 0 0 1-11.37 29.64c-0.53-1.17-1.11-2.45-1.71-3.84-7.12-15.21-11.2-28.47-11.42-41a51.37 51.37 0 0 0-4.91 2.72 10 10 0 0 1-3.47 1.8 19.29 19.29 0 0 1-24-13 4.08 4.08 0 0 1-0.16-1.14 4 4 0 0 1 2.84-3.81l9.68-2.85a13 13 0 0 1 10 1l1.35 0.72a13 13 0 0 0 9.94 1c0.18-0.85 0.39-1.7 0.62-2.54a21.08 21.08 0 0 1 2.88-5.65 44.29 44.29 0 0 1 19.73 36.95z"/><path class="logo-abbr-5" d="m65.62 37.398a1.42 1.42 0 0 1 0-0.22z"/><path class="logo-abbr-4" d="m97.05 58.128a44.18 44.18 0 0 0 11.37 29.64c-0.82 1.78-1.55 3.3-2.13 4.49l1 2.88a6.64 6.64 0 0 1-6.29 8.79h-15a6.64 6.64 0 0 1-6.29-8.79l1-2.93c-0.57-1.19-1.3-2.68-2.1-4.44a44.34 44.34 0 0 0-8.32-66.49c5-6.93 13.56-8.2 23.21-8.21h0.06c9.64 0 18.16 1.28 23.21 8.21a44.28 44.28 0 0 0-19.72 36.85z"/><path class="logo-abbr-1" d="m154.09 33.318a4.09 4.09 0 0 1-0.17 1.14 19.28 19.28 0 0 1-24 13 10 10 0 0 1-3.45-1.81 53.23 53.23 0 0 0-4.92-2.76c-0.22 12.55-4.3 25.81-11.41 41-0.6 1.39-1.18 2.67-1.72 3.84a44.32 44.32 0 0 1 8.32-66.49 21.08 21.08 0 0 1 2.88 5.65c0.23 0.84 0.43 1.69 0.62 2.54a13 13 0 0 0 10-1l1.33-0.72a13 13 0 0 1 9.95-1l9.67 2.87a4 4 0 0 1 2.9 3.74z"/><path class="logo-abbr-1" d="m97.96 97.718 3.14-6a1.32 1.32 0 0 1 2.31 0l0.46 0.82a3.09 3.09 0 0 1-0.75 3.89l-3.38 2.76a1.17 1.17 0 0 1-1.22 0.16 1.18 1.18 0 0 1-0.56-1.63z"/><path class="logo-abbr-1" d="m88.87 97.718-3.14-6a1.32 1.32 0 0 0-2.31 0l-0.46 0.82a3.09 3.09 0 0 0 0.75 3.89l3.38 2.76a1.17 1.17 0 0 0 1.22 0.16 1.17 1.17 0 0 0 0.56-1.63z"/><path class="logo-abbr-5" d="m121.37 37.398v-0.22z"/><path class="logo-abbr-4" d="m117.75 45.298-3.86 0.73a9 9 0 0 1 1.11 3v0.4a4.43 4.43 0 0 1-0.3 1.15 5.49 5.49 0 0 1-0.31 0.59 0.47 0.47 0 0 0-0.09 0.12 2.87 2.87 0 0 1-0.45 0.54 3.14 3.14 0 0 1-0.59 0.49 5.12 5.12 0 0 1-0.69 0.37 3.21 3.21 0 0 1-0.76 0.24 4.36 4.36 0 0 1-0.81 0.08h-3a0.42 0.42 0 0 1-0.39-0.55 37.76 37.76 0 0 1 3-6.44 2 2 0 0 1 1.78-1h5.28a0.15 0.15 0 0 1 0.08 0.28z"/><path class="logo-abbr-4" d="m69.53 45.008h5.28a2 2 0 0 1 1.78 1 37.76 37.76 0 0 1 3 6.44 0.42 0.42 0 0 1-0.39 0.55h-3a4.28 4.28 0 0 1-0.81-0.08 3.21 3.21 0 0 1-0.76-0.24 5.12 5.12 0 0 1-0.69-0.37 3.14 3.14 0 0 1-0.59-0.49 2.87 2.87 0 0 1-0.45-0.54 0.47 0.47 0 0 0-0.09-0.12 5.49 5.49 0 0 1-0.31-0.59 4.43 4.43 0 0 1-0.3-1.15v-0.4a9 9 0 0 1 1.11-3l-3.86-0.73a0.15 0.15 0 0 1 0.08-0.28z"/></svg>
