<?xml version="1.0" encoding="UTF-8" standalone="no"?>
<svg
   id="Layer_1"
   data-name="Layer 1"
   viewBox="0 0 454.92001 51.150322"
   version="1.1"
   width="454.92001"
   height="51.150322"
   xmlns="http://www.w3.org/2000/svg"
   xmlns:svg="http://www.w3.org/2000/svg">
  <path
     d="M 0,1.4503228 H 5.15 L 14.84,30.450323 25.16,1.4503228 h 5.13 L 17.55,35.710323 h -5.9 z"
     id="path827"
     style="fill:#fbf6f4" />
  <path
     d="m 39.87,19.770323 c 0.43,6.6 4.78,12.71 12.22,12.71 4.56,0 8.42,-1.27 10.88,-5.9 l 3.37,2.18 c -2.74,5.12 -8.7,7.79 -13.9,7.79 -11.23,0 -17.34,-8.14 -17.34,-18.18 0,-10.0400002 7.44,-17.77000015 16.78,-17.77000015 8.85,0 15.23,7.51999995 15.23,16.00000015 0,1.12 -0.14,2.53 -0.21,3.16 z m 12,-15.0900002 c -6.6,0 -10.88,4.63 -11.87,11.0000002 H 62.4 C 62.15,9.9403228 57.71,4.6803228 51.88,4.6803228 Z"
     id="path829"
     style="fill:#fbf6f4" />
  <path
     d="m 107.62,33.740323 c 0,12.08 -8.14,17.41 -17.27,17.41 a 27.86,27.86 0 0 1 -15,-4.84 l 2,-4 a 22.44,22.44 0 0 0 13,4.49 c 6.46,0 12.57,-3.16 12.57,-11.58 v -4.78 a 13.81,13.81 0 0 1 -11,5.27 17.44,17.44 0 0 1 -17.64,-17.42 17.74,17.74 0 0 1 17.62,-17.70000015 16.46,16.46 0 0 1 11,4.21999995 v -3.37 h 4.77 z m -4.77,-23.38 A 14.41,14.41 0 0 0 91.97,4.9603228 12.89,12.89 0 0 0 79.15,18.020323 c 0,7 5.27,13.33 12.78,13.33 4.21,0 8.91,-2.45 10.88,-6.45 z"
     id="path831"
     style="fill:#fbf6f4" />
  <path
     d="m 141.15,31.710323 a 14.72,14.72 0 0 1 -11.23,4.84 c -6.32,0 -11.86,-3.72 -11.86,-10.18 0,-8.42 7.86,-11.72 15.16,-11.72 a 31.11,31.11 0 0 1 7.79,1 v -1.9 c 0,-5.6800002 -2.8,-8.8400002 -8.77,-8.8400002 a 25.29,25.29 0 0 0 -11.16,3 l -1.62,-4.29 a 34.44,34.44 0 0 1 13,-2.99999995 c 10.18,0 13.34,5.33999995 13.34,14.19000015 v 20.92 h -4.28 z m -8.14,-13.13 c -4.7,0 -10.18,1.89 -10.18,7.23 0,4.14 3.23,6.81 7.23,6.81 4,0 7.72,-2 10.95,-5.13 v -7.93 a 34,34 0 0 0 -7.97,-0.98 z"
     id="path833"
     style="fill:#fbf6f4" />
  <path
     d="m 163.58,1.4503228 v 6 A 13.55,13.55 0 0 1 175.8,0.57032285 c 9.76,0 12.92,6.24999995 12.92,16.57000015 v 18.54 h -4.78 v -17.73 c 0,-6.46 -1.19,-13.0000002 -8.84,-13.0000002 -5.13,0 -9.27,3.65 -11.52,8.0000002 v 22.75 h -4.77 V 1.4503228 Z"
     id="path835"
     style="fill:#fbf6f4" />
  <path
     d="M 203.02,35.840323 V 0.60032285 h 6.24 V 30.500323 h 14.8 v 5.34 z"
     id="path837"
     style="fill:#fbf6f4" />
  <path
     d="M 229.04,35.840323 V 0.60032285 h 6.24 V 35.840323 Z"
     id="path839"
     style="fill:#fbf6f4" />
  <path
     d="m 268,35.840323 -17.42,-23.81 v 23.81 h -6.24 V 0.60032285 h 5.49 L 267.34,24.460323 V 0.60032285 h 6.24 V 35.840323 Z"
     id="path841"
     style="fill:#fbf6f4" />
  <path
     d="m 299.96,21.290323 v -5.33 h 14.95 v 13.54 a 18.39,18.39 0 0 1 -15,7 c -10.72,0 -18.82,-7.35 -18.82,-18.22 0,-10.3700002 8.4,-18.22000015 18.82,-18.22000015 a 18.59,18.59 0 0 1 14.34,6.63999995 l -4.37,3.7300002 a 13.36,13.36 0 0 0 -10,-4.8800002 c -7.05,0 -12.23,5.4800002 -12.23,12.7300002 0,7.7 5,12.74 12.23,12.74 a 12.86,12.86 0 0 0 8.76,-3.43 v -6.3 z"
     id="path843"
     style="fill:#fbf6f4" />
  <path
     d="m 351.05,19.290323 c 0,11.07 -4.18,17.16 -14.09,17.16 -9.67,0 -13.85,-6.09 -13.85,-17.16 V 0.60032285 h 6.25 V 20.290323 c 0,7.15 3,10.63 7.7,10.63 4.7,0 7.75,-3.48 7.75,-10.63 V 0.60032285 h 6.24 z"
     id="path845"
     style="fill:#fbf6f4" />
  <path
     d="M 359.96,35.840323 V 0.60032285 h 6.24 V 35.840323 Z"
     id="path847"
     style="fill:#fbf6f4" />
  <path
     d="m 386.99,5.3903228 c -2.92,0 -5.24,1.46 -5.24,4.12 0,2.6600002 3.48,3.8800002 6.29,4.8400002 5.19,1.76 11,4.07 11,11.17 0,7.75 -7.05,10.92 -12.89,10.92 -5.33,0 -9.36,-1.86 -13.19,-5.64 l 4.23,-4.07 c 3.07,3 5.39,4.33 9,4.33 3.12,0 6.24,-1.51 6.24,-5.19 0,-3.37 -3.57,-4.63 -7.24,-5.94 -4.74,-1.71 -9.72,-4 -9.72,-10.1100002 0,-6.7 5.34,-9.8199999525 11.12,-9.8199999525 A 18.13,18.13 0 0 1 397.97,3.9303228 l -3.67,4.48 a 11.86,11.86 0 0 0 -7.31,-3.02 z"
     id="path849"
     style="fill:#fbf6f4" />
  <path
     d="M 417.59,5.9403228 V 35.840323 h -6.24 V 5.9403228 h -8.56 V 0.60032285 h 23.36 V 5.9403228 Z"
     id="path851"
     style="fill:#fbf6f4" />
  <path
     d="m 442.86,5.3903228 c -2.92,0 -5.24,1.46 -5.24,4.12 0,2.6600002 3.48,3.8800002 6.3,4.8400002 5.18,1.76 11,4.07 11,11.17 0,7.75 -7.05,10.92 -12.89,10.92 -5.33,0 -9.36,-1.86 -13.18,-5.64 l 4.22,-4.07 c 3.07,3 5.39,4.33 9,4.33 3.12,0 6.24,-1.51 6.24,-5.19 0,-3.37 -3.57,-4.63 -7.24,-5.94 -4.73,-1.71 -9.72,-4 -9.72,-10.1100002 0,-6.7 5.34,-9.8199999525 11.13,-9.8199999525 A 18.1,18.1 0 0 1 453.85,3.9303228 l -3.67,4.48 a 11.83,11.83 0 0 0 -7.32,-3.02 z"
     id="path853"
     style="fill:#fbf6f4" />
</svg>
