<svg id="Layer_1" data-name="Layer 1" xmlns="http://www.w3.org/2000/svg" viewBox="0 0 500.7 247.46"><defs><style>.cls-1{fill:#b6674b;}.cls-2{fill:#292222;}.cls-3{fill:#a1c64f;}.cls-4{fill:#fff;}</style></defs><path class="cls-1" d="M22.88,173.46h5.19l9.69,29,10.32-29h5.13L40.43,207.72h-5.9Z"/><path class="cls-1" d="M62.75,191.78c.43,6.6,4.78,12.71,12.22,12.71,4.56,0,8.43-1.27,10.88-5.9l3.37,2.18c-2.74,5.12-8.7,7.79-13.9,7.79-11.23,0-17.34-8.14-17.34-18.18s7.44-17.77,16.78-17.77c8.85,0,15.24,7.52,15.24,16,0,1.12-.15,2.53-.22,3.16Zm12-15.09c-6.6,0-10.88,4.63-11.86,11H85.29C85,182,80.59,176.69,74.76,176.69Z"/><path class="cls-1" d="M130.51,205.75c0,12.08-8.15,17.41-17.28,17.41a27.86,27.86,0,0,1-15-4.84l2-4a22.38,22.38,0,0,0,13,4.49c6.46,0,12.57-3.16,12.57-11.58v-4.78a13.81,13.81,0,0,1-11,5.27,17.44,17.44,0,0,1-17.55-17.41,17.74,17.74,0,0,1,17.62-17.7,16.46,16.46,0,0,1,11,4.22v-3.37h4.78Zm-4.78-23.38a14.41,14.41,0,0,0-10.88-5.4A12.89,12.89,0,0,0,102.07,190c0,6.95,5.27,13.33,12.78,13.33,4.21,0,8.92-2.45,10.88-6.45Z"/><path class="cls-1" d="M164.07,203.72a14.74,14.74,0,0,1-11.24,4.84c-6.32,0-11.86-3.72-11.86-10.18,0-8.42,7.86-11.72,15.16-11.72a31,31,0,0,1,7.79,1.05v-1.9c0-5.68-2.8-8.84-8.77-8.84A25.29,25.29,0,0,0,144,179.92l-1.62-4.29a34.44,34.44,0,0,1,13-3c10.18,0,13.34,5.34,13.34,14.19v20.92h-4.28Zm-8.15-13.13c-4.7,0-10.18,1.89-10.18,7.23,0,4.14,3.23,6.81,7.23,6.81s7.73-2,10.95-5.13v-7.93A34,34,0,0,0,155.92,190.59Z"/><path class="cls-1" d="M186.46,173.46v6a13.55,13.55,0,0,1,12.22-6.88c9.76,0,12.92,6.25,12.92,16.57v18.54h-4.78V190c0-6.46-1.19-13-8.84-13-5.13,0-9.27,3.65-11.52,8v22.75h-4.77V173.46Z"/><path class="cls-2" d="M225.9,207.85V172.61h6.24v29.9h14.8v5.34Z"/><path class="cls-2" d="M251.92,207.85V172.61h6.24v35.24Z"/><path class="cls-2" d="M290.88,207.85,273.46,184v23.81h-6.24V172.61h5.49l17.51,23.86V172.61h6.25v35.24Z"/><path class="cls-2" d="M322.84,193.25v-5.33h15v13.53a18.37,18.37,0,0,1-15,7c-10.72,0-18.82-7.35-18.82-18.22,0-10.37,8.4-18.22,18.82-18.22a18.63,18.63,0,0,1,14.35,6.64l-4.38,3.73a13.36,13.36,0,0,0-10-4.88c-7.05,0-12.23,5.48-12.23,12.73,0,7.7,5,12.73,12.23,12.73a12.85,12.85,0,0,0,8.76-3.42v-6.29Z"/><path class="cls-2" d="M373.93,191.29c0,11.07-4.18,17.16-14.09,17.16-9.67,0-13.85-6.09-13.85-17.16V172.61h6.25v19.73c0,7.15,3,10.62,7.7,10.62s7.75-3.47,7.75-10.62V172.61h6.24Z"/><path class="cls-2" d="M382.84,207.85V172.61h6.24v35.24Z"/><path class="cls-2" d="M409.87,177.4c-2.92,0-5.24,1.46-5.24,4.12s3.48,3.88,6.3,4.83c5.18,1.77,11,4.08,11,11.18,0,7.75-7.05,10.92-12.89,10.92-5.33,0-9.36-1.86-13.18-5.64l4.22-4.07c3.07,3,5.39,4.33,9,4.33,3.12,0,6.24-1.51,6.24-5.19,0-3.37-3.57-4.63-7.24-5.94-4.73-1.71-9.72-4-9.72-10.12,0-6.69,5.34-9.81,11.13-9.81a18.1,18.1,0,0,1,11.37,3.93l-3.67,4.48A11.78,11.78,0,0,0,409.87,177.4Z"/><path class="cls-2" d="M440.47,178v29.9h-6.24V178h-8.56v-5.34H449V178Z"/><path class="cls-2" d="M465.74,177.4c-2.92,0-5.24,1.46-5.24,4.12s3.48,3.88,6.3,4.83c5.18,1.77,11,4.08,11,11.18,0,7.75-7.05,10.92-12.89,10.92-5.33,0-9.36-1.86-13.18-5.64l4.22-4.07c3.07,3,5.39,4.33,9,4.33,3.13,0,6.25-1.51,6.25-5.19,0-3.37-3.58-4.63-7.25-5.94-4.73-1.71-9.72-4-9.72-10.12,0-6.69,5.34-9.81,11.13-9.81a18.1,18.1,0,0,1,11.37,3.93l-3.67,4.48A11.75,11.75,0,0,0,465.74,177.4Z"/><path class="cls-1" d="M343.86,126.77l-20.11-8.08a44.34,44.34,0,0,1-58.49-6.61c.53-1.17,1.11-2.45,1.71-3.84,10.19-21.79,14.16-39.57,9.48-57a21.08,21.08,0,0,0-2.88-5.65,44.34,44.34,0,0,1,62.05,60.68Z"/><path class="cls-3" d="M235.41,112.08a44.35,44.35,0,0,1-58.48,6.62l-20.09,8.07,8.23-20.48a44.33,44.33,0,0,1,62-60.7,21.08,21.08,0,0,0-2.88,5.65c-4.68,17.43-.71,35.21,9.48,57C234.29,109.63,234.87,110.91,235.41,112.08Z"/><path class="cls-2" d="M271.77,43.49a20.57,20.57,0,0,0-11-5.31,37.48,37.48,0,0,0,10.68-13,1.55,1.55,0,0,1,2.91.37A25.74,25.74,0,0,1,271.77,43.49Z"/><path class="cls-2" d="M240.15,38.13c-4.31.8-8.11,2.33-11.08,5.2a25.67,25.67,0,0,1-2.45-17.8,1.55,1.55,0,0,1,2.91-.37A37.24,37.24,0,0,0,240.15,38.13Z"/><path class="cls-2" d="M308.08,53.82,298.41,51a13.09,13.09,0,0,0-10,1l-1.33.73a13.06,13.06,0,0,1-9.95,1h-.05l-.05,0c-.18-.84-.39-1.7-.62-2.54a21.08,21.08,0,0,0-2.88-5.65,44.33,44.33,0,0,0-8.31,66.49c.53-1.17,1.11-2.45,1.71-3.84,7.12-15.22,11.2-28.48,11.41-41A52.87,52.87,0,0,1,283.3,70a9.92,9.92,0,0,0,3.48,1.8,19.29,19.29,0,0,0,24-13,4.13,4.13,0,0,0,.16-1.14A4,4,0,0,0,308.08,53.82Zm-33.5,15.79-3.86.73a9,9,0,0,1,1.12,3c0,.14,0,.27,0,.41a3.68,3.68,0,0,1-.3,1.15,4,4,0,0,1-.31.58.31.31,0,0,0-.08.13,3.37,3.37,0,0,1-.46.54,3.14,3.14,0,0,1-.59.49,6.52,6.52,0,0,1-.68.38,3.39,3.39,0,0,1-.77.22,3.59,3.59,0,0,1-.81.09h-3a.42.42,0,0,1-.39-.55,37.76,37.76,0,0,1,3-6.44,2,2,0,0,1,1.78-1h5.29A.15.15,0,0,1,274.58,69.61Z"/><path class="cls-2" d="M227.09,45.59a21.08,21.08,0,0,0-2.88,5.65c-.23.84-.43,1.7-.62,2.54l-.05,0h0a13,13,0,0,1-9.94-1L212.21,52a13.07,13.07,0,0,0-10-1l-9.67,2.87a4,4,0,0,0-2.85,3.81,4.13,4.13,0,0,0,.16,1.14,19.29,19.29,0,0,0,24,13,9.78,9.78,0,0,0,3.47-1.8,54.27,54.27,0,0,1,4.92-2.76c.22,12.55,4.3,25.81,11.41,41,.6,1.39,1.18,2.67,1.72,3.84a44.32,44.32,0,0,0-8.32-66.49Zm9,31.71h-3a3.59,3.59,0,0,1-.81-.09,3.25,3.25,0,0,1-.77-.22,6.66,6.66,0,0,1-.69-.38,3.07,3.07,0,0,1-.58-.49,2.59,2.59,0,0,1-.46-.54.91.91,0,0,0-.08-.13,4.08,4.08,0,0,1-.32-.58,4.32,4.32,0,0,1-.3-1.15c0-.14,0-.27,0-.41a9,9,0,0,1,1.11-3l-3.85-.73a.15.15,0,0,1,.07-.29h5.28a2.07,2.07,0,0,1,1.79,1,37,37,0,0,1,3,6.44A.42.42,0,0,1,236.06,77.3Z"/><path class="cls-4" d="M222.45,61.71l0-.22Z"/><path class="cls-2" d="M264.11,119.46l-1.71-5a7.32,7.32,0,0,0-6.92-5H245.15a7.31,7.31,0,0,0-6.92,5l-1.71,5a6.64,6.64,0,0,0,6.29,8.79h15A6.65,6.65,0,0,0,264.11,119.46Zm-19,4.18a1.19,1.19,0,0,1-1.23-.16l-3.38-2.76a3.08,3.08,0,0,1-.75-3.88l.47-.83a1.32,1.32,0,0,1,2.31,0l3.13,6a1.16,1.16,0,0,1,.13.54A1.18,1.18,0,0,1,245.15,123.64ZM260,120.72l-3.38,2.76a1.18,1.18,0,0,1-1.92-.91,1.3,1.3,0,0,1,.13-.54l3.15-6a1.31,1.31,0,0,1,2.3,0l.46.83A3.09,3.09,0,0,1,260,120.72Z"/><path class="cls-4" d="M278.21,61.71a1.42,1.42,0,0,0,0-.22Z"/></svg>