<?xml version="1.0" encoding="UTF-8"?><svg width="187.02" height="103.93" data-name="Layer 1" version="1.1" viewBox="0 0 187.02 103.93" xmlns="http://www.w3.org/2000/svg"><defs><style>.cls-1{fill:#b6674b;}.cls-2{fill:#a1c64f;}.cls-3{fill:#292222;}.cls-4{fill:#fff;}</style></defs><path class="cls-1" d="m187.02 102.46-20.11-8.08a44.36 44.36 0 0 1-58.53-6.61c0.54-1.17 1.12-2.46 1.72-3.84 10.19-21.79 14.16-39.57 9.48-57a21.17 21.17 0 0 0-2.88-5.64 44.34 44.34 0 0 1 62.08 60.67z"/><path class="cls-2" d="m78.57 87.775a44.35 44.35 0 0 1-58.48 6.62l-20.09 8.07 8.23-20.48a44.33 44.33 0 0 1 62-60.7 21.17 21.17 0 0 0-2.85 5.64c-4.68 17.44-0.71 35.22 9.48 57 0.59 1.39 1.17 2.68 1.71 3.85z"/><path class="cls-3" d="m114.93 19.185a20.59 20.59 0 0 0-11-5.32 37.39 37.39 0 0 0 10.68-13 1.56 1.56 0 0 1 2.91 0.38 25.74 25.74 0 0 1-2.59 17.94z"/><path class="cls-3" d="m83.31 13.825a20.94 20.94 0 0 0-11.09 5.19 25.69 25.69 0 0 1-2.44-17.79 1.56 1.56 0 0 1 2.91-0.38 37.2 37.2 0 0 0 10.62 12.98z"/><path class="cls-3" d="m151.23 29.515-9.67-2.84a13.08 13.08 0 0 0-10 1l-1.33 0.72a13.06 13.06 0 0 1-10 1h-0.05c-0.19-0.85-0.39-1.7-0.62-2.55a21.17 21.17 0 0 0-2.88-5.64 44.34 44.34 0 0 0-8.3 66.57c0.54-1.17 1.12-2.46 1.72-3.84 7.12-15.22 11.2-28.48 11.41-41a51.37 51.37 0 0 1 4.95 2.74 10.31 10.31 0 0 0 3.47 1.8 19.3 19.3 0 0 0 24-13 4 4 0 0 0-2.69-4.94zm-33.49 15.79-3.86 0.73a9 9 0 0 1 1.12 3v0.41a4.06 4.06 0 0 1-0.3 1.15 4.63 4.63 0 0 1-0.31 0.58 0.31 0.31 0 0 0-0.08 0.13 3.37 3.37 0 0 1-0.46 0.54 3.14 3.14 0 0 1-0.59 0.49 5.7 5.7 0 0 1-0.69 0.37 2.76 2.76 0 0 1-0.77 0.23 3.5 3.5 0 0 1-0.8 0.08h-3a0.42 0.42 0 0 1-0.39-0.54 37.41 37.41 0 0 1 3-6.44 2 2 0 0 1 1.78-1h5.28a0.15 0.15 0 0 1 0.07 0.27z"/><path class="cls-3" d="m70.25 21.285a21.17 21.17 0 0 0-2.87 5.64c-0.23 0.85-0.43 1.7-0.62 2.55h-0.05a13 13 0 0 1-9.94-1l-1.39-0.8a13.07 13.07 0 0 0-10-1l-9.67 2.88a4 4 0 0 0-2.69 4.94 19.3 19.3 0 0 0 24 13 10.12 10.12 0 0 0 3.5-1.82 50.11 50.11 0 0 1 4.92-2.77c0.22 12.56 4.29 25.82 11.41 41 0.6 1.38 1.18 2.67 1.72 3.84a44.34 44.34 0 0 0-8.32-66.49zm9 31.7h-3a3.68 3.68 0 0 1-0.82-0.08 2.9 2.9 0 0 1-0.76-0.23 6.56 6.56 0 0 1-0.69-0.37 2.79 2.79 0 0 1-0.58-0.49 2.59 2.59 0 0 1-0.46-0.54 0.91 0.91 0 0 0-0.08-0.13 4.71 4.71 0 0 1-0.32-0.58 4.43 4.43 0 0 1-0.3-1.15v-0.41a9 9 0 0 1 1.11-3l-3.85-0.73a0.15 0.15 0 0 1 0.06-0.29h5.29a2 2 0 0 1 1.78 1 36 36 0 0 1 3 6.44 0.41 0.41 0 0 1-0.41 0.56z"/><path class="cls-4" d="m65.61 37.405v-0.22z"/><path class="cls-3" d="m107.27 95.145-1.71-5a7.32 7.32 0 0 0-6.93-5h-10.32a7.31 7.31 0 0 0-6.92 5l-1.71 5a6.64 6.64 0 0 0 6.29 8.79h15a6.64 6.64 0 0 0 6.3-8.79zm-19 4.18a1.15 1.15 0 0 1-1.22-0.15l-3.38-2.76a3.09 3.09 0 0 1-0.75-3.89l0.46-0.85a1.32 1.32 0 0 1 2.32 0l3.13 6a1.13 1.13 0 0 1 0.13 0.54 1.15 1.15 0 0 1-0.66 1.11zm14.82-2.91-3.39 2.76a1.15 1.15 0 0 1-1.22 0.15 1.17 1.17 0 0 1-0.69-1.06 1.13 1.13 0 0 1 0.13-0.54l3.15-6a1.3 1.3 0 0 1 2.3 0l0.46 0.82a3.1 3.1 0 0 1-0.71 3.87z"/><path class="cls-4" d="m121.38 37.405a1.18 1.18 0 0 0 0-0.22z"/><polygon class="cls-2" transform="translate(-9.62 -10.325)" points="46.17 98.1 9.62 112.79 23.83 77.25"/></svg>
