<svg id="Layer_1" data-name="Layer 1" xmlns="http://www.w3.org/2000/svg" viewBox="0 0 206.25 124.58"><defs><style>.cls-1{fill:#b6674b;}.cls-2{fill:#a1c64f;}.cls-3{fill:#292222;}.cls-4{fill:#fff;}</style></defs><path class="cls-1" d="M196.64,112.79l-20.11-8.08A44.36,44.36,0,0,1,118,98.1c.54-1.17,1.12-2.46,1.72-3.84,10.19-21.79,14.16-39.57,9.48-57a21.17,21.17,0,0,0-2.88-5.64A44.34,44.34,0,0,1,188.4,92.29Z"/><path class="cls-2" d="M88.19,98.1a44.35,44.35,0,0,1-58.48,6.62L9.62,112.79l8.23-20.48a44.33,44.33,0,0,1,62-60.7A21.17,21.17,0,0,0,77,37.25c-4.68,17.44-.71,35.22,9.48,57C87.07,95.64,87.65,96.93,88.19,98.1Z"/><path class="cls-3" d="M124.55,29.51a20.59,20.59,0,0,0-11-5.32,37.39,37.39,0,0,0,10.68-13,1.56,1.56,0,0,1,2.91.38A25.74,25.74,0,0,1,124.55,29.51Z"/><path class="cls-3" d="M92.93,24.15a20.94,20.94,0,0,0-11.09,5.19A25.69,25.69,0,0,1,79.4,11.55a1.56,1.56,0,0,1,2.91-.38A37.2,37.2,0,0,0,92.93,24.15Z"/><path class="cls-3" d="M160.85,39.84,151.18,37a13.08,13.08,0,0,0-10,1l-1.33.72a13.06,13.06,0,0,1-10,1h0l-.05,0c-.19-.85-.39-1.7-.62-2.55a21.17,21.17,0,0,0-2.88-5.64A44.34,44.34,0,0,0,118,98.1c.54-1.17,1.12-2.46,1.72-3.84,7.12-15.22,11.2-28.48,11.41-41A51.37,51.37,0,0,1,136.08,56a10.31,10.31,0,0,0,3.47,1.8,19.3,19.3,0,0,0,24-13,4,4,0,0,0-2.69-4.94ZM127.36,55.63l-3.86.73a9,9,0,0,1,1.12,3c0,.14,0,.27,0,.41a4.06,4.06,0,0,1-.3,1.15,4.63,4.63,0,0,1-.31.58.31.31,0,0,0-.08.13,3.37,3.37,0,0,1-.46.54,3.14,3.14,0,0,1-.59.49,5.7,5.7,0,0,1-.69.37,2.76,2.76,0,0,1-.77.23,3.5,3.5,0,0,1-.8.08h-3a.42.42,0,0,1-.39-.54,37.41,37.41,0,0,1,3-6.44,2,2,0,0,1,1.78-1h5.28A.15.15,0,0,1,127.36,55.63Z"/><path class="cls-3" d="M79.87,31.61A21.17,21.17,0,0,0,77,37.25c-.23.85-.43,1.7-.62,2.55l-.05,0h0a13,13,0,0,1-9.94-1L65,38A13.07,13.07,0,0,0,55,37l-9.67,2.88a4,4,0,0,0-2.69,4.94,19.3,19.3,0,0,0,24,13A10.12,10.12,0,0,0,70.14,56a50.11,50.11,0,0,1,4.92-2.77c.22,12.56,4.29,25.82,11.41,41,.6,1.38,1.18,2.67,1.72,3.84a44.34,44.34,0,0,0-8.32-66.49Zm9,31.7h-3a3.68,3.68,0,0,1-.82-.08,2.9,2.9,0,0,1-.76-.23,6.56,6.56,0,0,1-.69-.37,2.79,2.79,0,0,1-.58-.49,2.59,2.59,0,0,1-.46-.54.91.91,0,0,0-.08-.13,4.71,4.71,0,0,1-.32-.58,4.43,4.43,0,0,1-.3-1.15c0-.14,0-.27,0-.41a9,9,0,0,1,1.11-3l-3.85-.73a.15.15,0,0,1,.06-.29h5.29a2,2,0,0,1,1.78,1,36,36,0,0,1,3,6.44A.41.41,0,0,1,88.84,63.31Z"/><path class="cls-4" d="M75.23,47.73l0-.22Z"/><path class="cls-3" d="M116.89,105.47l-1.71-5a7.32,7.32,0,0,0-6.93-5H97.93a7.31,7.31,0,0,0-6.92,5l-1.71,5a6.64,6.64,0,0,0,6.29,8.79h15A6.64,6.64,0,0,0,116.89,105.47Zm-19,4.18a1.15,1.15,0,0,1-1.22-.15l-3.38-2.76a3.09,3.09,0,0,1-.75-3.89L93,102a1.32,1.32,0,0,1,2.32,0l3.13,6a1.13,1.13,0,0,1,.13.54A1.15,1.15,0,0,1,97.92,109.65Zm14.82-2.91-3.39,2.76a1.15,1.15,0,0,1-1.22.15,1.17,1.17,0,0,1-.69-1.06,1.13,1.13,0,0,1,.13-.54l3.15-6a1.3,1.3,0,0,1,2.3,0l.46.82A3.1,3.1,0,0,1,112.74,106.74Z"/><path class="cls-4" d="M131,47.73a1.18,1.18,0,0,0,0-.22Z"/><polygon class="cls-2" points="9.62 112.79 23.83 77.25 46.17 98.1 9.62 112.79"/></svg>